<?xml version="1.0" standalone="no"?>
<!DOCTYPE svg PUBLIC "-//W3C//DTD SVG 20010904//EN"
 "http://www.w3.org/TR/2001/REC-SVG-20010904/DTD/svg10.dtd">
<svg version="1.0" xmlns="http://www.w3.org/2000/svg"
 width="243.000000pt" height="230.000000pt" viewBox="0 0 243.000000 230.000000"
 preserveAspectRatio="xMidYMid meet">

<g transform="translate(0.000000,230.000000) scale(0.100000,-0.100000)"
fill="#000000" stroke="none">
<path d="M1105 2128 c-3 -8 -11 -45 -18 -83 l-13 -70 -40 70 c-34 61 -42 70
-65 67 l-25 -3 12 -77 c23 -137 23 -137 -61 -50 -68 70 -77 77 -98 67 -22 -10
-23 -12 -15 -102 5 -50 7 -95 5 -100 -1 -5 -15 9 -31 32 l-28 41 -38 -28 c-29
-20 -36 -30 -28 -40 9 -10 15 -9 34 3 21 14 23 13 29 -6 10 -31 -25 -64 -58
-55 -32 8 -71 68 -62 96 7 23 41 44 60 36 16 -6 29 24 16 37 -14 14 -55 1 -88
-27 -64 -55 -5 -184 85 -186 30 0 76 45 68 68 -5 15 -4 15 6 1 10 -15 14 -15
45 3 23 14 33 27 33 44 0 19 8 29 33 39 29 12 34 12 51 -4 17 -18 20 -18 58
-2 39 16 39 16 33 61 -4 25 -9 56 -11 70 -3 14 11 -5 31 -42 49 -95 68 -93 86
10 l13 77 11 -68 c13 -74 16 -80 37 -72 13 5 13 18 -1 103 -15 87 -19 97 -39
100 -12 2 -24 -3 -27 -10z m-245 -188 c-25 -16 -40 -11 -40 14 0 13 -3 33 -6
43 -5 12 5 7 27 -15 28 -27 31 -34 19 -42z"/>
<path d="M1226 2123 c-3 -8 -6 -55 -6 -104 0 -82 1 -89 20 -89 18 0 20 7 20
78 0 42 3 87 6 98 4 16 0 23 -15 27 -12 3 -22 -1 -25 -10z"/>
<path d="M1316 2066 c-31 -139 -31 -136 -8 -136 16 0 22 11 33 65 7 35 15 62
19 60 3 -2 17 -38 30 -79 20 -64 27 -76 45 -76 19 0 24 10 38 78 10 42 20 87
23 98 4 16 0 23 -15 27 -18 4 -22 -2 -32 -54 -6 -32 -15 -59 -18 -59 -4 0 -18
31 -31 69 -18 54 -29 70 -46 74 -21 4 -24 -2 -38 -67z"/>
<path d="M1570 2038 c-33 -17 -73 -95 -65 -128 9 -37 40 -63 74 -63 17 0 28
-4 25 -8 -2 -4 4 -12 13 -18 15 -8 22 -2 44 42 l27 51 -41 18 c-32 15 -42 16
-48 6 -6 -8 -1 -16 11 -22 24 -11 25 -19 5 -36 -12 -10 -21 -10 -40 -2 -50 23
-17 132 40 132 13 0 32 -11 43 -25 20 -25 52 -34 52 -15 0 20 -56 70 -85 75
-16 3 -41 0 -55 -7z"/>
<path d="M1804 1870 c-37 -15 -74 -68 -74 -107 0 -45 45 -93 88 -93 35 0 41 5
35 29 -3 13 -11 17 -29 13 -58 -11 -74 59 -23 102 17 14 38 26 48 26 24 0 51
-31 51 -59 0 -30 34 -24 38 7 2 15 -8 34 -31 57 -35 35 -62 42 -103 25z"/>
<path d="M410 1749 c-12 -22 -14 -19 54 -103 30 -36 35 -47 21 -43 -117 36
-156 36 -167 0 -5 -17 165 -125 174 -110 13 20 10 24 -49 61 -65 40 -62 42 17
21 69 -18 77 -18 83 0 4 8 -13 38 -41 72 l-47 58 36 -21 c20 -12 47 -29 62
-38 24 -16 26 -16 35 0 8 15 -3 26 -75 71 -46 29 -86 53 -88 53 -2 0 -9 -9
-15 -21z"/>
<path d="M1909 1683 l-86 -58 26 -36 c14 -20 31 -44 36 -54 6 -10 16 -14 27
-10 15 6 14 11 -9 46 -14 22 -24 41 -22 43 2 2 34 23 71 48 59 39 66 47 55 61
-11 15 -20 11 -98 -40z"/>
<path d="M1100 1659 c-113 -22 -254 -122 -317 -225 -56 -93 -79 -249 -52 -363
39 -173 219 -341 382 -358 46 -5 61 -2 90 16 46 28 71 89 58 138 -11 41 -47
83 -70 83 -11 0 -12 3 -4 11 17 17 83 -19 111 -61 l24 -35 -7 35 c-17 82 -70
116 -163 106 -206 -22 -200 -23 -266 52 -42 46 -39 64 10 76 39 10 124 69 124
87 0 28 58 97 105 124 25 15 45 32 45 38 0 36 85 107 129 107 19 0 20 -4 15
-44 l-6 -43 60 -6 c53 -4 172 -47 172 -61 0 -3 -17 -2 -37 0 l-38 5 50 -26
c63 -33 101 -69 127 -118 23 -45 17 -60 -12 -29 -30 32 -31 28 -4 -25 13 -27
26 -57 30 -68 6 -19 7 -18 14 5 14 44 11 174 -5 235 -22 82 -58 143 -123 209
-115 116 -280 166 -442 135z"/>
<path d="M2019 1551 c-37 -14 -74 -32 -83 -40 -39 -33 -1 -141 50 -141 26 0
141 37 157 50 4 4 5 14 2 22 -6 14 -16 12 -81 -11 l-75 -26 -20 24 c-28 34 -9
57 71 87 35 14 65 26 67 28 1 1 -3 9 -10 18 -11 13 -19 12 -78 -11z"/>
<path d="M285 1500 c-9 -10 -19 -38 -22 -62 -4 -38 -1 -46 25 -72 21 -20 44
-30 76 -33 40 -5 48 -2 76 25 33 34 40 84 16 117 -12 16 -16 17 -30 6 -14 -11
-14 -15 -1 -28 20 -19 19 -36 -3 -63 -15 -19 -25 -22 -54 -16 -19 3 -43 12
-53 19 -25 19 -23 68 4 85 11 8 21 21 21 28 0 21 -34 17 -55 -6z"/>
<path d="M2055 1335 c-49 -7 -91 -14 -91 -14 -1 -1 2 -27 11 -83 3 -21 13 -44
21 -53 20 -20 58 -19 80 2 10 11 29 16 49 15 47 -5 58 15 50 88 -4 36 -12 59
-18 59 -7 -1 -52 -7 -102 -14z m90 -56 c5 -14 1 -27 -10 -38 -15 -15 -17 -15
-31 3 -8 11 -14 28 -14 38 0 27 47 24 55 -3z m-81 -15 c13 -49 -36 -75 -54
-28 -17 42 -12 54 19 54 23 0 30 -6 35 -26z"/>
<path d="M228 1292 c-5 -16 1 -21 31 -26 20 -3 50 -6 68 -6 17 0 38 -3 47 -6
21 -8 21 -50 0 -62 -14 -8 -14 -10 2 -22 14 -13 19 -11 35 9 21 26 24 62 9 91
-10 19 -29 24 -131 35 -50 5 -57 4 -61 -13z"/>
<path d="M1085 1230 c-16 -18 -16 -20 -2 -20 9 0 21 9 27 20 6 11 7 20 2 20
-5 0 -17 -9 -27 -20z"/>
<path d="M1926 1078 c-21 -30 -20 -81 2 -101 10 -9 45 -18 82 -22 36 -3 75 -8
88 -11 18 -4 22 0 22 19 0 23 -4 24 -76 30 -42 4 -80 9 -85 13 -15 9 -10 54 6
60 12 5 13 10 4 20 -16 19 -25 18 -43 -8z"/>
<path d="M398 1083 c-9 -2 -20 -13 -23 -23 -5 -16 -10 -17 -36 -6 -28 10 -33
9 -50 -13 -16 -19 -18 -33 -13 -80 4 -31 8 -57 9 -59 2 -2 157 16 191 23 19 4
20 8 12 67 -10 81 -35 106 -90 91z m45 -50 c3 -5 8 -23 12 -40 6 -32 6 -33
-29 -33 -34 0 -36 2 -36 33 0 19 3 37 7 40 9 9 41 9 46 0z m-85 -51 c3 -29 1
-32 -22 -32 -22 0 -26 5 -26 28 0 33 8 44 30 40 9 -2 16 -16 18 -36z"/>
<path d="M1901 894 c-38 -32 -50 -84 -27 -119 14 -21 19 -23 36 -13 18 11 18
14 3 30 -19 21 -11 63 16 77 26 14 88 -5 106 -33 13 -19 13 -28 4 -50 -7 -14
-18 -26 -26 -26 -7 0 -13 -9 -13 -20 0 -13 7 -20 18 -20 48 0 80 97 48 146
-19 28 -71 54 -110 54 -13 0 -38 -12 -55 -26z"/>
<path d="M373 852 c-66 -26 -68 -29 -54 -50 6 -11 21 -8 71 12 79 33 97 32
112 0 17 -37 3 -52 -72 -82 -79 -31 -73 -26 -66 -50 6 -19 10 -18 83 12 86 35
108 60 99 109 -15 79 -66 94 -173 49z"/>
<path d="M1831 752 c-8 -15 -1 -24 40 -52 69 -47 69 -51 -3 -29 -35 10 -68 19
-74 19 -27 0 -20 -32 17 -84 22 -31 37 -56 33 -56 -3 0 -29 16 -56 37 -40 29
-52 33 -59 22 -5 -8 -9 -16 -8 -19 0 -3 38 -33 84 -67 l84 -61 16 24 c15 23
14 26 -30 86 -24 34 -43 64 -40 66 2 2 36 -6 76 -18 l73 -22 17 23 c17 22 16
24 -4 38 -12 8 -52 36 -89 63 -61 43 -68 46 -77 30z"/>
<path d="M553 733 c-9 -3 -6 -14 11 -36 13 -18 26 -37 29 -43 4 -6 -24 -32
-63 -59 -39 -27 -70 -51 -70 -55 0 -4 6 -12 13 -19 10 -8 33 4 96 50 52 38 79
64 75 72 -19 32 -68 97 -73 96 -3 0 -12 -3 -18 -6z"/>
<path d="M628 584 c-3 -3 -4 -14 -1 -24 4 -14 10 -17 22 -11 30 15 71 -13 71
-50 0 -31 -49 -79 -80 -79 -32 0 -62 33 -53 57 4 11 0 14 -18 11 -61 -8 10
-108 76 -108 51 0 104 51 112 107 5 37 2 45 -25 73 -22 22 -40 30 -65 30 -18
0 -36 -3 -39 -6z"/>
<path d="M1658 536 c-10 -8 -14 -21 -11 -37 4 -21 -2 -30 -28 -47 -31 -19 -35
-20 -51 -5 -14 13 -23 14 -41 5 -12 -6 -32 -14 -45 -17 -12 -4 -20 -10 -17
-15 3 -4 13 -35 24 -69 l19 -61 -27 20 c-15 10 -34 26 -41 35 -26 31 -70 56
-89 50 -17 -5 -16 -11 13 -105 27 -86 34 -100 52 -100 l22 0 -19 61 c-11 34
-17 64 -14 67 3 3 20 -8 38 -24 74 -68 81 -72 104 -64 l21 9 -29 92 c-17 50
-28 94 -25 97 3 2 27 -13 53 -35 112 -92 118 -95 141 -76 l21 18 -24 100 c-14
54 -26 102 -27 106 -2 4 -10 2 -20 -5z m19 -146 c9 -36 9 -39 -6 -28 -47 36
-51 41 -40 55 20 23 35 14 46 -27z"/>
<path d="M846 453 c-3 -8 -6 -16 -6 -18 0 -2 20 -11 45 -21 25 -9 45 -18 45
-20 0 -1 -4 -14 -10 -29 -10 -25 -10 -25 -46 -10 -36 15 -54 13 -54 -5 0 -6
16 -16 35 -24 35 -15 40 -22 29 -49 -5 -14 -12 -13 -51 4 -37 16 -48 17 -54 7
-11 -17 -5 -22 65 -51 l60 -25 38 96 c21 52 35 99 31 103 -4 4 -34 19 -65 32
-48 21 -57 23 -62 10z"/>
<path d="M992 298 c-8 -79 -8 -104 1 -110 28 -18 43 -4 78 70 l36 77 18 -82
c15 -72 21 -82 42 -88 14 -3 27 -5 28 -3 7 7 26 199 20 208 -3 5 -12 10 -19
10 -9 0 -16 -23 -21 -72 l-8 -73 -16 65 c-28 112 -38 115 -86 23 l-35 -68 6
73 c6 67 5 72 -13 72 -18 0 -21 -11 -31 -102z"/>
<path d="M1263 382 c-10 -6 -10 -28 -3 -92 5 -47 10 -93 10 -102 0 -12 8 -18
21 -18 21 0 22 3 15 88 -10 129 -15 142 -43 124z"/>
</g>
</svg>
